<svg width="36px" height="20px" viewBox="0 0 36 20" version="1.1" xmlns="http://www.w3.org/2000/svg" xmlns:xlink="http://www.w3.org/1999/xlink">
    <!-- Generator: Sketch 41.2 (35397) - http://www.bohemiancoding.com/sketch -->
    <title>WH Monogram YWht RGB1</title>
    <desc>Created with Sketch.</desc>
    <defs></defs>
    <g id="Symbols" stroke="none" stroke-width="1" fill="none" fill-rule="evenodd">
        <g id="app-header-320-NLI" transform="translate(-44.000000, -12.000000)">
            <g id="Logo+burger">
                <g transform="translate(12.000000, 12.000000)">
                    <g id="WH-Monogram-YWht-RGB" transform="translate(32.000000, 0.000000)">
                        <g id="WH_monogram_YWht">
                            <g>
                                <path d="M9.46285714,19.2970297 C5.73626374,19.2970297 3.52879121,17.029703 3.00065934,13.9722772 C3.19428972,14.0240865 3.39364984,14.0513623 3.59406593,14.0534653 C4.24420152,14.0472861 4.88429277,13.8921675 5.46527473,13.6 C5.81562761,13.8678642 6.24700316,14.0076215 6.68769231,13.9960396 C10.5646154,13.9960396 13.4228571,6.71485149 10.978022,4.67326733 C13.0272527,3.73267327 15.1931868,3.40990099 16.7142857,4.29306931 C16.3192543,4.5794316 15.9463312,4.89517634 15.5986813,5.23762376 C12.6593407,8.18217822 11.2925275,14.1841584 9.0632967,16.5920792 C8.79888423,16.4946314 8.52015592,16.4417687 8.23846154,16.4356436 C7.79538462,16.4356436 7.38989011,16.6435644 7.33450549,16.9009901 C7.27912088,17.1584158 7.59164835,17.3663366 8.03472527,17.3663366 C8.43112813,17.3634325 8.81835348,17.2465872 9.15032967,17.029703 C9.38870194,17.0570337 9.62842139,17.070917 9.86835165,17.0712871 C10.7703297,17.0712871 11.6208791,16.6752475 12.6059341,15.6970297 C15.1773626,13.1227723 17.4046154,7.67920792 18.9158242,6.63564356 C17.4936264,9.02970297 15.9764835,14.4217822 13.9114286,16.619802 C13.6623605,16.5074393 13.3933307,16.4461677 13.1202198,16.439604 C12.6771429,16.439604 12.2716484,16.6475248 12.2162637,16.9049505 C12.1608791,17.1623762 12.4734066,17.370297 12.9164835,17.370297 C13.3293663,17.3640788 13.731223,17.2359495 14.0716484,17.0019802 C14.3440321,17.0791441 14.6253051,17.1204163 14.9083516,17.1247525 C15.6540659,17.1247525 16.5520879,16.7049505 17.3057143,15.950495 C20.0353846,13.2178218 23.4791209,7.59405941 26.4046154,4.66336634 C27.4668132,3.6 29.3716484,2.13465347 31.8956044,2.13465347 C33.3106077,2.16074212 34.6777677,2.65198603 35.7863736,3.53267327 C35.8397802,3.47920792 35.82,3.38613861 35.6953846,3.26336634 C34.5927995,2.15038349 33.0973257,1.51597489 31.5316484,1.4970297 C30.1846154,1.4970297 27.9178022,1.96435644 25.1703297,4.71485149 C22.2389011,7.64752475 18.9138462,13.5267327 16.7301099,15.7128713 C15.8142857,16.629703 15.2189011,16.8356436 14.7362637,16.8356436 C14.6184092,16.8345618 14.5012648,16.8172373 14.3881319,16.7841584 C14.8557778,16.4274777 15.2961265,16.036288 15.7054945,15.6138614 C19.2857143,12.029703 20.0967033,5.44752475 22.0925275,3.45148515 C21.9540659,3.31287129 20.9789011,3.53663366 19.261978,5.25544554 C16.4927473,8.02772277 14.9320879,12.8534653 12.2123077,15.5762376 C11.3459341,16.4356436 10.4538462,16.7920792 9.89010989,16.7920792 C9.77800609,16.7908133 9.6664516,16.7761889 9.5578022,16.7485149 C10.0026121,16.402449 10.4229575,16.0259715 10.8158242,15.6217822 C12.8254945,13.609901 14.9696703,7.54257426 17.3136264,4.57029703 C19.9345055,4.44950495 19.8949451,3.2 19.0542857,3.2 C18.5815385,3.2 17.8971429,3.51683168 17.2246154,3.94653465 C16.563956,3.36633663 15.4443956,2.93861386 13.9035165,2.93861386 C12.3038682,2.95706114 10.734327,3.37642898 9.33824176,4.15841584 L9.33824176,4.15841584 C6.34153846,4.15841584 2.20351648,7.32673267 2.20351648,12.6732673 C2.20351648,12.8237624 2.20747253,12.9722772 2.21538462,13.1188119 C1.49538462,12.639604 0.854505494,11.7623762 0.854505494,10.2772277 C0.854505494,5.97425743 7.40769231,0.75049505 15.1358242,0.75049505 C18.2235165,0.758415842 21.3626374,1.78217822 23.3208791,3.2039604 L23.4316484,3.07524752 C22.229011,1.87128713 19.2995604,0 14.2259341,0 C7.55208791,0 0.197802198,3.90693069 0.197802198,10.2653465 C0.183529051,11.7048434 0.983018013,13.0288246 2.26285714,13.6851485 C2.64479171,17.1799877 5.6029462,19.8208052 9.11472527,19.8019802 L34.8131868,19.8019802 L34.8131868,19.2970297 L9.46285714,19.2970297 Z M10.4835165,4.91089109 C13.1123077,6.57227723 10.1769231,13.5584158 6.86373626,13.5584158 C6.54422738,13.5673787 6.22915233,13.4819807 5.9578022,13.3128713 C7.04373626,12.6 8.17714286,11.239604 8.90901099,8.69108911 L8.75868132,8.63762376 C8.21076923,10.3108911 7.04373626,12.1009901 5.62351648,13.0138614 C5.22791209,12.5306931 5.09340659,11.8 5.09340659,11.1188119 C5.09934066,9.00792079 7.61736264,6.38019802 10.4835165,4.91089109 Z M2.87604396,12.4752475 C2.87604396,9.10891089 5.78769231,5.07326733 8.5767033,4.5980198 C6.13186813,6.22178218 4.47230769,8.74257426 4.47230769,10.950495 C4.47230769,11.8673267 4.68593407,12.7148515 5.14483516,13.2831683 C4.70655133,13.4999587 4.22530886,13.6156652 3.73648352,13.6217822 C3.4621897,13.6164669 3.19046938,13.5676773 2.93142857,13.4772277 C2.89425162,13.1445351 2.87576099,12.8100153 2.87604396,12.4752475 L2.87604396,12.4752475 Z" id="Shape" fill="#FAFF05"></path>
                                <polygon id="Shape" fill="#FFFFFF" points="30.9402198 3.53861386 30.9402198 8.31287129 29.0334066 8.31287129 29.0334066 3.53861386 25.1584615 3.53861386 25.1584615 17.1009901 29.0334066 17.1009901 29.0334066 11.7306931 30.9402198 11.7306931 30.9402198 17.1009901 34.8151648 17.1009901 34.8151648 3.53861386"></polygon>
                            </g>
                        </g>
                    </g>
                </g>
            </g>
        </g>
    </g>
</svg>
